<mxfile host="app.diagrams.net" modified="2022-04-15T07:29:11.836Z" agent="5.0 (Windows NT 10.0; Win64; x64) AppleWebKit/537.36 (KHTML, like Gecko) Chrome/100.0.4896.75 Safari/537.36" etag="adLihmIOMtj2x8pwIgOE" version="17.4.4" type="github">
  <diagram id="2ypTlcxz3y5ueowWzWs1" name="Page-1">
    <mxGraphModel dx="1108" dy="450" grid="1" gridSize="10" guides="1" tooltips="1" connect="1" arrows="1" fold="1" page="1" pageScale="1" pageWidth="850" pageHeight="1100" math="0" shadow="0">
      <root>
        <mxCell id="0" />
        <mxCell id="1" parent="0" />
        <mxCell id="NI9U4wc57ySs0xuswe9u-1" value="" style="edgeStyle=orthogonalEdgeStyle;rounded=0;orthogonalLoop=1;jettySize=auto;html=1;fillColor=#00CC66;" edge="1" parent="1" source="NI9U4wc57ySs0xuswe9u-2">
          <mxGeometry relative="1" as="geometry">
            <mxPoint x="330" y="585" as="targetPoint" />
          </mxGeometry>
        </mxCell>
        <mxCell id="NI9U4wc57ySs0xuswe9u-2" value="The resident" style="shape=umlActor;verticalLabelPosition=bottom;labelBackgroundColor=#ffffff;verticalAlign=top;html=1;outlineConnect=0;fillColor=#FFE599;" vertex="1" parent="1">
          <mxGeometry x="220" y="555" width="30" height="60" as="geometry" />
        </mxCell>
        <mxCell id="NI9U4wc57ySs0xuswe9u-3" value="" style="edgeStyle=orthogonalEdgeStyle;rounded=0;orthogonalLoop=1;jettySize=auto;html=1;" edge="1" parent="1" source="NI9U4wc57ySs0xuswe9u-4" target="NI9U4wc57ySs0xuswe9u-22">
          <mxGeometry relative="1" as="geometry" />
        </mxCell>
        <mxCell id="NI9U4wc57ySs0xuswe9u-4" value="&lt;span style=&quot;text-align: left&quot;&gt;&lt;font style=&quot;font-size: 14px&quot;&gt;Navigates to “&lt;b&gt;Find a registration centre&lt;/b&gt;”&lt;/font&gt;&lt;/span&gt;" style="rounded=1;whiteSpace=wrap;html=1;fillColor=#FF66FF;" vertex="1" parent="1">
          <mxGeometry x="610" y="467.5" width="120" height="80" as="geometry" />
        </mxCell>
        <mxCell id="NI9U4wc57ySs0xuswe9u-5" value="" style="edgeStyle=orthogonalEdgeStyle;rounded=0;orthogonalLoop=1;jettySize=auto;html=1;" edge="1" parent="1" source="NI9U4wc57ySs0xuswe9u-24" target="NI9U4wc57ySs0xuswe9u-7">
          <mxGeometry relative="1" as="geometry">
            <mxPoint x="1140" y="507.5" as="sourcePoint" />
          </mxGeometry>
        </mxCell>
        <mxCell id="NI9U4wc57ySs0xuswe9u-6" value="" style="edgeStyle=orthogonalEdgeStyle;rounded=0;orthogonalLoop=1;jettySize=auto;html=1;" edge="1" parent="1" source="NI9U4wc57ySs0xuswe9u-7" target="NI9U4wc57ySs0xuswe9u-8">
          <mxGeometry relative="1" as="geometry" />
        </mxCell>
        <mxCell id="NI9U4wc57ySs0xuswe9u-7" value="&lt;font style=&quot;font-size: 14px&quot;&gt;Enters values for the chosen option&lt;/font&gt;" style="rounded=1;whiteSpace=wrap;html=1;fillColor=#FF66FF;" vertex="1" parent="1">
          <mxGeometry x="1360" y="472.5" width="120" height="70" as="geometry" />
        </mxCell>
        <mxCell id="NI9U4wc57ySs0xuswe9u-8" value="&lt;font style=&quot;font-size: 14px&quot;&gt;Gets the list of registration centers in paginated format&lt;/font&gt;" style="rounded=1;whiteSpace=wrap;html=1;fillColor=#FF66FF;" vertex="1" parent="1">
          <mxGeometry x="1530" y="472.5" width="120" height="70" as="geometry" />
        </mxCell>
        <mxCell id="NI9U4wc57ySs0xuswe9u-9" value="" style="edgeStyle=orthogonalEdgeStyle;rounded=0;orthogonalLoop=1;jettySize=auto;html=1;exitX=1;exitY=0.5;exitDx=0;exitDy=0;entryX=0;entryY=0.5;entryDx=0;entryDy=0;" edge="1" parent="1" source="NI9U4wc57ySs0xuswe9u-20" target="NI9U4wc57ySs0xuswe9u-10">
          <mxGeometry relative="1" as="geometry">
            <mxPoint x="1240" y="397.5" as="sourcePoint" />
            <mxPoint x="1300" y="397.5" as="targetPoint" />
          </mxGeometry>
        </mxCell>
        <mxCell id="NI9U4wc57ySs0xuswe9u-10" value="&lt;font style=&quot;font-size: 14px&quot;&gt;Gets the list of registration centers near him&lt;/font&gt;" style="rounded=1;whiteSpace=wrap;html=1;fillColor=#FFFF66;" vertex="1" parent="1">
          <mxGeometry x="940" y="360" width="120" height="70" as="geometry" />
        </mxCell>
        <mxCell id="NI9U4wc57ySs0xuswe9u-11" value="" style="edgeStyle=orthogonalEdgeStyle;rounded=0;orthogonalLoop=1;jettySize=auto;html=1;entryX=0;entryY=0.5;entryDx=0;entryDy=0;" edge="1" parent="1" source="NI9U4wc57ySs0xuswe9u-12">
          <mxGeometry relative="1" as="geometry">
            <mxPoint x="810" y="667.5" as="targetPoint" />
          </mxGeometry>
        </mxCell>
        <mxCell id="NI9U4wc57ySs0xuswe9u-12" value="&lt;span style=&quot;text-align: left&quot;&gt;&lt;font style=&quot;font-size: 14px&quot;&gt;Navigates to &quot;&lt;b&gt;list of supporting documents&lt;/b&gt;&quot;&lt;/font&gt;&lt;/span&gt;" style="rounded=1;whiteSpace=wrap;html=1;fillColor=#FF9999;" vertex="1" parent="1">
          <mxGeometry x="620" y="637.5" width="120" height="60" as="geometry" />
        </mxCell>
        <mxCell id="NI9U4wc57ySs0xuswe9u-13" value="" style="edgeStyle=orthogonalEdgeStyle;rounded=0;orthogonalLoop=1;jettySize=auto;html=1;" edge="1" parent="1" source="NI9U4wc57ySs0xuswe9u-14" target="NI9U4wc57ySs0xuswe9u-15">
          <mxGeometry relative="1" as="geometry" />
        </mxCell>
        <mxCell id="NI9U4wc57ySs0xuswe9u-14" value="&lt;font style=&quot;font-size: 14px&quot;&gt;Clicks on &quot;search&quot; button&lt;/font&gt;" style="rounded=1;whiteSpace=wrap;html=1;fillColor=#FF9999;" vertex="1" parent="1">
          <mxGeometry x="810" y="632.5" width="120" height="70" as="geometry" />
        </mxCell>
        <mxCell id="NI9U4wc57ySs0xuswe9u-15" value="&lt;font style=&quot;font-size: 14px&quot;&gt;Gets the list of supporting documents&lt;/font&gt;" style="rounded=1;whiteSpace=wrap;html=1;fillColor=#FF9999;" vertex="1" parent="1">
          <mxGeometry x="990" y="632.5" width="120" height="70" as="geometry" />
        </mxCell>
        <mxCell id="NI9U4wc57ySs0xuswe9u-16" value="" style="edgeStyle=orthogonalEdgeStyle;rounded=0;orthogonalLoop=1;jettySize=auto;html=1;fillColor=#00CC66;" edge="1" parent="1">
          <mxGeometry relative="1" as="geometry">
            <mxPoint x="450" y="585" as="sourcePoint" />
            <mxPoint x="610" y="510" as="targetPoint" />
            <Array as="points">
              <mxPoint x="510" y="585" />
              <mxPoint x="510" y="510" />
            </Array>
          </mxGeometry>
        </mxCell>
        <mxCell id="NI9U4wc57ySs0xuswe9u-17" value="" style="endArrow=classic;html=1;exitX=0.5;exitY=0;exitDx=0;exitDy=0;" edge="1" parent="1" source="NI9U4wc57ySs0xuswe9u-4">
          <mxGeometry width="50" height="50" relative="1" as="geometry">
            <mxPoint x="700" y="282.5" as="sourcePoint" />
            <mxPoint x="770" y="397.5" as="targetPoint" />
            <Array as="points">
              <mxPoint x="670" y="397.5" />
            </Array>
          </mxGeometry>
        </mxCell>
        <mxCell id="NI9U4wc57ySs0xuswe9u-18" value="" style="edgeStyle=orthogonalEdgeStyle;rounded=0;orthogonalLoop=1;jettySize=auto;html=1;fillColor=#00CC66;entryX=0;entryY=0.5;entryDx=0;entryDy=0;" edge="1" parent="1" target="NI9U4wc57ySs0xuswe9u-12">
          <mxGeometry relative="1" as="geometry">
            <mxPoint x="510" y="570" as="sourcePoint" />
            <mxPoint x="670" y="520" as="targetPoint" />
            <Array as="points">
              <mxPoint x="510" y="667.5" />
            </Array>
          </mxGeometry>
        </mxCell>
        <mxCell id="NI9U4wc57ySs0xuswe9u-19" value="&lt;span style=&quot;text-align: left&quot;&gt;&lt;font style=&quot;font-size: 14px&quot;&gt;Navigates to &quot;&lt;b&gt;Get information&lt;/b&gt;&quot;&lt;/font&gt;&lt;/span&gt;" style="rounded=1;whiteSpace=wrap;html=1;fillColor=#FF9999;" vertex="1" parent="1">
          <mxGeometry x="330" y="555" width="120" height="60" as="geometry" />
        </mxCell>
        <mxCell id="NI9U4wc57ySs0xuswe9u-20" value="&lt;div&gt;&lt;font style=&quot;font-size: 14px&quot;&gt;Allows location access&lt;/font&gt;&lt;/div&gt;" style="rounded=1;whiteSpace=wrap;html=1;fillColor=#FFFF66;align=center;" vertex="1" parent="1">
          <mxGeometry x="770" y="365" width="120" height="60" as="geometry" />
        </mxCell>
        <mxCell id="NI9U4wc57ySs0xuswe9u-21" value="" style="edgeStyle=orthogonalEdgeStyle;rounded=0;orthogonalLoop=1;jettySize=auto;html=1;entryX=0;entryY=0.5;entryDx=0;entryDy=0;" edge="1" parent="1" source="NI9U4wc57ySs0xuswe9u-22" target="NI9U4wc57ySs0xuswe9u-24">
          <mxGeometry relative="1" as="geometry">
            <mxPoint x="1030" y="507.5" as="targetPoint" />
          </mxGeometry>
        </mxCell>
        <mxCell id="NI9U4wc57ySs0xuswe9u-22" value="&lt;font style=&quot;font-size: 14px&quot;&gt;Denies location access&lt;/font&gt;" style="rounded=1;whiteSpace=wrap;html=1;fillColor=#FFFF66;align=center;" vertex="1" parent="1">
          <mxGeometry x="870" y="477.5" width="120" height="60" as="geometry" />
        </mxCell>
        <mxCell id="NI9U4wc57ySs0xuswe9u-23" value="" style="endArrow=classic;html=1;exitX=1;exitY=0.5;exitDx=0;exitDy=0;entryX=0.583;entryY=0.019;entryDx=0;entryDy=0;entryPerimeter=0;" edge="1" parent="1" source="NI9U4wc57ySs0xuswe9u-10" target="NI9U4wc57ySs0xuswe9u-24">
          <mxGeometry width="50" height="50" relative="1" as="geometry">
            <mxPoint x="1120" y="502.5" as="sourcePoint" />
            <mxPoint x="1170" y="452.5" as="targetPoint" />
            <Array as="points">
              <mxPoint x="1233" y="395.5" />
            </Array>
          </mxGeometry>
        </mxCell>
        <mxCell id="NI9U4wc57ySs0xuswe9u-24" value="&lt;font style=&quot;font-size: 14px&quot;&gt;Chooses from the dropdown options&lt;br&gt;1. Region&lt;br&gt;2. City&lt;br&gt;3. Province&lt;br&gt;4. All locations&lt;/font&gt;&lt;font&gt;&lt;font&gt;&lt;br&gt;&lt;/font&gt;&lt;/font&gt;" style="rounded=1;whiteSpace=wrap;html=1;fillColor=#FF66FF;" vertex="1" parent="1">
          <mxGeometry x="1140" y="452.5" width="160" height="110" as="geometry" />
        </mxCell>
      </root>
    </mxGraphModel>
  </diagram>
</mxfile>
